<?xml version="1.0" encoding="utf-8"?>
<!-- Generator: Adobe Illustrator 16.0.0, SVG Export Plug-In . SVG Version: 6.00 Build 0)  -->
<!DOCTYPE svg PUBLIC "-//W3C//DTD SVG 1.1//EN" "http://www.w3.org/Graphics/SVG/1.1/DTD/svg11.dtd">
<svg version="1.1" id="Layer_1" xmlns="http://www.w3.org/2000/svg" xmlns:xlink="http://www.w3.org/1999/xlink" x="0px" y="0px"
	 width="166.082px" height="47.074px" viewBox="0 0 166.082 47.074" enable-background="new 0 0 166.082 47.074"
	 xml:space="preserve">
<g>
	<path d="M47.542,22.564h6.46l10.294,24.354h-7.185L55.349,42.6h-9.328l-1.727,4.318h-7.047L47.542,22.564z M53.415,37.384
		L50.72,30.51l-2.729,6.875H53.415z"/>
	<path d="M69.237,22.737h6.252l9.949,12.782V22.737h6.633v24.181h-5.873L75.87,33.653v13.265h-6.632V22.737z"/>
	<path d="M98.188,42.048l12.125-13.646H98.602v-5.666h20.969v4.871l-12.125,13.646h12.125v5.665H98.188V42.048z"/>
	<path d="M134.011,22.564h4.975l7.514,23.001l-2.919-2.009l-1.762-0.957h-9.327l-1.728,4.318h-7.047L134.011,22.564z
		 M139.884,37.384l-2.694-6.875l-2.729,6.875H139.884z"/>
	<path fill-rule="evenodd" clip-rule="evenodd" fill="none" stroke="#E29C93" stroke-width="7.0417" stroke-miterlimit="10" d="
		M15.301,43.464c-6.506,0-11.78-5.292-11.78-11.819s5.274-11.819,11.78-11.819"/>
	<path fill-rule="evenodd" clip-rule="evenodd" fill="none" stroke="#E29C93" stroke-width="7.0417" stroke-miterlimit="10" d="
		M18.45,3.521c6.506,0,11.78,5.292,11.78,11.819c0,6.528-5.274,11.819-11.78,11.819"/>
	<path d="M15.31,22.737h6.702v18.309h11.711v5.872H15.31V22.737z"/>
	<path d="M143.581,43.557l-1.762-0.957h-9.327l-1.728,4.318h-7.047l10.294-24.354 M139.884,37.384l-2.694-6.875l-2.729,6.875
		H139.884z"/>
	<g>
		<path fill-rule="evenodd" clip-rule="evenodd" fill="none" stroke="#E29C93" stroke-width="7.0353" stroke-miterlimit="10" d="
			M150.775,43.557c-6.511,0-11.789-5.277-11.789-11.789c0-6.511,5.278-11.789,11.789-11.789"/>
		<path fill-rule="evenodd" clip-rule="evenodd" fill="none" stroke="#E29C93" stroke-width="7.0353" stroke-miterlimit="10" d="
			M150.775,3.623c6.511,0,11.789,5.279,11.789,11.789c0,6.512-5.278,11.79-11.789,11.79"/>
	</g>
</g>
</svg>
